<svg width="32" height="32" viewBox="0 0 32 32" fill="none" xmlns="http://www.w3.org/2000/svg">
<path opacity="0.993" fill-rule="evenodd" clip-rule="evenodd" d="M14.625 0C15.5625 0 16.5 0 17.4375 0C23.0402 0.680494 27.259 3.45133 30.0938 8.3125C31.1372 10.2794 31.7726 12.3628 32 14.5625C32 15.5 32 16.4375 32 17.375C31.2197 23.6442 27.9697 28.1129 22.25 30.7812C20.676 31.4247 19.051 31.831 17.375 32C16.4375 32 15.5 32 14.5625 32C8.18337 31.1703 3.6938 27.8161 1.09375 21.9375C0.533181 20.4767 0.168598 18.9767 0 17.4375C0 16.4792 0 15.5208 0 14.5625C0.612936 9.29638 3.13377 5.22346 7.5625 2.34375C9.74512 1.0294 12.0992 0.24815 14.625 0ZM17.4375 7.625C18.4197 7.60512 19.3988 7.626 20.375 7.6875C20.4182 7.72031 20.4495 7.762 20.4688 7.8125C20.5104 8.75 20.5104 9.6875 20.4688 10.625C20.4167 10.6771 20.3646 10.7292 20.3125 10.7812C19.625 10.8021 18.9375 10.8229 18.25 10.8438C17.7643 10.9129 17.5247 11.1942 17.5312 11.6875C17.5 12.333 17.4896 12.9788 17.5 13.625C18.4212 13.5969 19.3378 13.6281 20.25 13.7188C20.3251 13.7752 20.3772 13.8481 20.4062 13.9375C20.4479 14.875 20.4479 15.8125 20.4062 16.75C20.3869 16.8291 20.3557 16.9021 20.3125 16.9688C19.3795 17.0594 18.442 17.0907 17.5 17.0625C17.5104 19.4376 17.5 21.8126 17.4688 24.1875C17.4167 24.2396 17.3646 24.2917 17.3125 24.3438C16.2917 24.3854 15.2708 24.3854 14.25 24.3438C14.1111 24.303 14.0381 24.2092 14.0312 24.0625C14 21.7292 13.9896 19.3959 14 17.0625C13.2052 17.0821 12.4136 17.0613 11.625 17C11.5817 16.9672 11.5505 16.9255 11.5312 16.875C11.4896 15.8542 11.4896 14.8333 11.5312 13.8125C11.5625 13.7812 11.5938 13.75 11.625 13.7188C12.4164 13.6875 13.2081 13.6771 14 13.6875C13.9776 12.7269 14.0088 11.7686 14.0938 10.8125C14.4814 8.9795 15.596 7.917 17.4375 7.625Z" fill="#CE9D77"/>
</svg>
