<svg width="32" height="32" viewBox="0 0 32 32" fill="none" xmlns="http://www.w3.org/2000/svg">
<path opacity="0.987" fill-rule="evenodd" clip-rule="evenodd" d="M14.5625 0C15.5208 0 16.4792 0 17.4375 0C23.0402 0.680494 27.259 3.45133 30.0938 8.3125C31.1372 10.2794 31.7726 12.3628 32 14.5625C32 15.5208 32 16.4792 32 17.4375C31.3195 23.0402 28.5487 27.259 23.6875 30.0938C21.7206 31.1372 19.6372 31.7726 17.4375 32C16.4792 32 15.5208 32 14.5625 32C8.95975 31.3195 4.74101 28.5487 1.90625 23.6875C0.862831 21.7206 0.227413 19.6372 0 17.4375C0 16.4792 0 15.5208 0 14.5625C0.680469 8.95981 3.4513 4.74108 8.3125 1.90625C10.2794 0.862831 12.3628 0.227413 14.5625 0ZM15.5625 6.8125C16.9996 6.854 18.4371 6.88525 19.875 6.90625C22.1084 6.93313 23.7021 7.9435 24.6562 9.9375C24.9142 10.644 25.0601 11.3731 25.0938 12.125C25.1354 14.7083 25.1354 17.2917 25.0938 19.875C24.8542 23.1146 23.1146 24.8542 19.875 25.0938C18.5828 25.1095 17.2911 25.1408 16 25.1875C14.7089 25.1408 13.4172 25.1095 12.125 25.0938C9.89162 25.0669 8.29788 24.0565 7.34375 22.0625C7.08581 21.356 6.93994 20.6269 6.90625 19.875C6.89512 18.5806 6.86387 17.2889 6.8125 16C6.86387 14.7111 6.89512 13.4194 6.90625 12.125C6.95375 9.62138 8.15162 7.96513 10.5 7.15625C11.0133 7.02556 11.5341 6.94225 12.0625 6.90625C13.2399 6.89575 14.4065 6.8645 15.5625 6.8125Z" fill="#CE9D77"/>
<path opacity="0.977" fill-rule="evenodd" clip-rule="evenodd" d="M12.8125 8.43751C14.9376 8.42707 17.0626 8.43751 19.1875 8.46876C22.1771 8.37501 23.625 9.82295 23.5313 12.8125C23.5868 15.2926 23.566 17.7718 23.4688 20.25C23.289 21.9709 22.3619 23.023 20.6875 23.4063C20.1898 23.4723 19.6898 23.5139 19.1875 23.5313C16.7075 23.5868 14.2283 23.5659 11.75 23.4688C10.0214 23.2988 8.96933 22.3717 8.59377 20.6875C8.52877 20.2106 8.48715 19.7314 8.46877 19.25C8.41271 16.7491 8.43352 14.2491 8.53127 11.75C8.70127 10.0214 9.62833 8.96932 11.3125 8.59376C11.8215 8.53788 12.3215 8.48582 12.8125 8.43751ZM20.8125 10C20.6773 10.0606 20.5315 10.1126 20.375 10.1563C19.6347 10.783 19.6347 11.408 20.375 12.0313C21.263 12.3323 21.8046 12.0198 22 11.0938C21.8731 10.4356 21.4773 10.071 20.8125 10ZM15.5 11.3125C13.7076 11.6146 12.4263 12.5937 11.6563 14.25C10.937 16.3625 11.4058 18.1646 13.0625 19.6563C14.8065 20.9046 16.619 21.0088 18.5 19.9688C20.4803 18.5071 21.0948 16.6008 20.3438 14.25C19.382 12.2112 17.7674 11.232 15.5 11.3125Z" fill="#CE9D77"/>
<path opacity="0.977" fill-rule="evenodd" clip-rule="evenodd" d="M15.375 12.9374C16.9612 12.7459 18.1175 13.3501 18.8437 14.7499C19.4275 16.5628 18.8962 17.9273 17.25 18.8436C15.4371 19.4274 14.0725 18.8961 13.1562 17.2499C12.6294 15.7419 12.9731 14.4815 14.1875 13.4686C14.5595 13.2237 14.9553 13.0466 15.375 12.9374Z" fill="#CE9D77"/>
</svg>
