<svg width="32" height="32" viewBox="0 0 32 32" fill="none" xmlns="http://www.w3.org/2000/svg">
<path opacity="0.99" fill-rule="evenodd" clip-rule="evenodd" d="M14.625 0C15.5625 0 16.5 0 17.4375 0C23.0402 0.680494 27.259 3.45133 30.0938 8.3125C31.1372 10.2794 31.7726 12.3628 32 14.5625C32 15.5 32 16.4375 32 17.375C31.2197 23.6442 27.9697 28.1129 22.25 30.7812C20.676 31.4247 19.051 31.831 17.375 32C16.4375 32 15.5 32 14.5625 32C8.32669 31.1906 3.87878 27.9406 1.21875 22.25C0.585283 20.6952 0.179033 19.0911 0 17.4375C0 16.4792 0 15.5208 0 14.5625C0.612936 9.29638 3.13377 5.22346 7.5625 2.34375C9.74512 1.0294 12.0992 0.24815 14.625 0ZM13.875 10.8125C14.8768 10.7937 15.8768 10.8249 16.875 10.9062C17.3917 10.9855 17.6729 11.2876 17.7188 11.8125C17.7292 12.0208 17.7396 12.2292 17.75 12.4375C17.6873 13.4996 17.6768 14.5621 17.7188 15.625C17.7344 15.8284 17.7969 16.0159 17.9062 16.1875C18.0704 16.343 18.2475 16.3534 18.4375 16.2188C19.0154 15.6348 19.5259 14.9993 19.9688 14.3125C20.4804 13.3829 20.9492 12.4349 21.375 11.4688C21.4583 11.4271 21.5417 11.3854 21.625 11.3438C22.9167 11.3021 24.2083 11.3021 25.5 11.3438C25.8846 11.4353 26.02 11.6749 25.9062 12.0625C25.7178 12.6464 25.4469 13.1881 25.0938 13.6875C24.3854 14.6458 23.6771 15.6042 22.9688 16.5625C22.6654 16.9557 22.6446 17.3515 22.9062 17.75C23.8501 18.631 24.7251 19.5685 25.5312 20.5625C25.7634 20.8498 25.9197 21.1726 26 21.5312C25.8911 21.9109 25.6411 22.1401 25.25 22.2188C24.2083 22.2604 23.1667 22.2604 22.125 22.2188C21.7085 22.1771 21.3335 22.0312 21 21.7812C20.3522 21.1544 19.7272 20.5086 19.125 19.8438C18.8716 19.5853 18.5799 19.5228 18.25 19.6562C18.1532 19.7321 18.0803 19.8259 18.0312 19.9375C17.8613 20.5581 17.7155 21.1831 17.5938 21.8125C17.4648 21.9971 17.2878 22.1116 17.0625 22.1562C14.9404 22.3861 13.0654 21.8236 11.4375 20.4688C10.1089 19.1612 8.99438 17.6924 8.09375 16.0625C7.37706 14.7334 6.71044 13.3792 6.09375 12C6.01705 11.7443 6.06913 11.5256 6.25 11.3438C6.52112 11.3148 6.79194 11.2836 7.0625 11.25C7.91575 11.2976 8.76994 11.3288 9.625 11.3438C9.89606 11.4274 10.1148 11.5837 10.2812 11.8125C10.8594 13.3028 11.6302 14.6778 12.5938 15.9375C12.7885 16.1223 13.0072 16.2681 13.25 16.375C13.3873 16.3533 13.5019 16.2908 13.5938 16.1875C13.6661 15.9189 13.7286 15.6481 13.7812 15.375C13.8229 14.5 13.8229 13.625 13.7812 12.75C13.7172 12.1234 13.3735 11.7589 12.75 11.6562C12.6964 11.6132 12.6548 11.5611 12.625 11.5C12.6932 11.3379 12.7974 11.2024 12.9375 11.0938C13.239 10.935 13.5515 10.8413 13.875 10.8125Z" fill="#CE9D77"/>
</svg>
